<?xml version="1.0" standalone="no"?>
<!DOCTYPE svg PUBLIC "-//W3C//DTD SVG 20010904//EN"
 "http://www.w3.org/TR/2001/REC-SVG-20010904/DTD/svg10.dtd">
<svg version="1.0" xmlns="http://www.w3.org/2000/svg"
 width="348.000000pt" height="348.000000pt" viewBox="0 0 348.000000 348.000000"
 preserveAspectRatio="xMidYMid meet">
<metadata>
Created by potrace 1.14, written by Peter Selinger 2001-2017
</metadata>
<g transform="translate(0.000000,348.000000) scale(0.100000,-0.100000)"
fill="#000000" stroke="none">
<path d="M0 1740 l0 -1740 1740 0 1740 0 0 1740 0 1740 -1740 0 -1740 0 0
-1740z m1820 1225 l0 -125 -40 0 -40 0 0 125 0 125 40 0 40 0 0 -125z m-700
-275 l0 -190 -45 0 -45 0 0 183 c0 101 3 187 7 190 3 4 24 7 45 7 l38 0 0
-190z m1340 -170 l0 -220 -45 0 -45 0 0 220 0 220 45 0 45 0 0 -220z m-370 65
l0 -65 -45 0 -45 0 0 65 0 65 45 0 45 0 0 -65z m-450 -114 l0 -68 73 -6 c391
-35 776 -327 936 -711 39 -94 83 -255 75 -278 -9 -28 -51 -34 -77 -10 -63 57
-184 88 -289 73 -68 -10 -111 -27 -165 -67 -37 -28 -75 -31 -94 -8 -22 27
-109 65 -170 75 -75 12 -165 -2 -236 -36 l-53 -26 0 -422 0 -422 24 -50 c42
-90 112 -135 208 -135 29 0 71 9 93 19 70 31 135 124 135 192 0 28 2 29 46 29
l47 0 -6 -49 c-13 -111 -99 -222 -202 -260 -156 -58 -320 5 -395 153 l-35 69
-3 433 -3 433 -27 19 c-54 38 -115 54 -197 55 -99 0 -147 -13 -211 -58 -27
-19 -57 -35 -67 -35 -9 0 -40 16 -68 35 -65 45 -115 58 -214 58 -88 -1 -143
-18 -212 -66 -72 -51 -103 -20 -83 81 56 268 256 562 488 715 170 114 406 197
554 197 l38 0 0 70 0 70 45 0 45 0 0 -69z m-830 -126 l0 -95 -45 0 -45 0 0 95
0 95 45 0 45 0 0 -95z"/>
<path d="M1400 2296 c-366 -77 -673 -343 -800 -694 -13 -34 -21 -65 -18 -67 3
-3 23 1 45 9 108 38 248 28 353 -26 l65 -33 65 32 c86 43 185 58 282 43 73
-11 149 -39 178 -65 15 -13 24 -11 86 20 132 68 290 69 423 2 l65 -32 65 33
c109 54 245 64 353 26 23 -8 43 -12 45 -10 7 7 -47 140 -88 216 -81 150 -213
298 -344 385 -81 53 -228 120 -320 146 -102 27 -354 36 -455 15z"/>
</g>
</svg>
