<svg xmlns="http://www.w3.org/2000/svg" version="1.1" xmlns:xlink="http://www.w3.org/1999/xlink" width="512" height="512" x="0" y="0" viewBox="0 0 512 512" style="enable-background:new 0 0 512 512" xml:space="preserve" class=""><g><path d="M463.106 302.584c-18.639-99.836-101.835-173.283-198.996-177.009v-24.66h-16.197v24.669c-97.287 3.859-180.378 77.257-199.02 177a8.102 8.102 0 0 0 13.445 7.45c10.629-9.782 26.46-15.391 43.428-15.391 17.367 0 33.966 6.106 44.39 16.335 3.156 3.09 8.207 3.09 11.354-.015 10.378-10.217 26.982-16.32 44.424-16.32 16.116 0 31.526 5.254 41.976 14.16V451.24c0 33.505 26.36 60.759 58.752 60.759 32.412 0 58.78-27.254 58.78-60.759h-16.195c0 24.571-19.105 44.562-42.586 44.562-23.465 0-42.555-19.988-42.555-44.562V308.808c10.451-8.909 25.864-14.162 41.976-14.162 17.454 0 34.063 6.103 44.442 16.32a8.1 8.1 0 0 0 11.361.01c10.412-10.225 26.995-16.33 44.362-16.33 17.014 0 32.832 5.604 43.397 15.375a8.107 8.107 0 0 0 9.416 1.142 8.107 8.107 0 0 0 4.046-8.579zm-56.852-24.135c-18.97 0-36.785 5.768-50.035 16.021-13.23-10.253-31.081-16.021-50.13-16.021-19.003 0-36.831 5.778-50.076 16.049-13.245-10.271-31.076-16.049-50.081-16.049-19.041 0-36.884 5.765-50.109 16.023-13.263-10.255-31.083-16.023-50.053-16.023-12.966 0-25.492 2.737-36.375 7.777 24.269-84.408 99.492-144.138 185.823-144.622l.796-.005 1.142.013c86.036.481 161.203 60.193 185.462 144.594-10.864-5.028-23.385-7.757-36.364-7.757zM95.872 118.502h16.197v34.926H95.872zM397.852 64.256h16.197v79.846h-16.197zM281.858 0h16.197v46.157h-16.197zM153.858 39.291h16.197v68.598h-16.197zM329.935 79.59h16.197v25.421h-16.197z" fill="#fff" opacity="1" class=""></path></g></svg>